<svg id="Layer_1" data-name="Layer 1" xmlns="http://www.w3.org/2000/svg" viewBox="0 0 875.6 179.2"><defs><style>.cls-1{fill:#fff;}</style></defs><title>Wordmark</title><path id="_Compound_Path_" data-name="&lt;Compound Path&gt;" class="cls-1" d="M97.14,50.52V79A24.33,24.33,0,0,0,88,71.55,27,27,0,0,0,76.29,69q-10.79,0-17.57,7.27a25.44,25.44,0,0,0-6.79,18.06q0,10.91,6.85,17.87t17.88,7a26,26,0,0,0,11.27-2.6,27.22,27.22,0,0,0,9.21-7.09v28.48q-13.81,4.25-21,4.24a49.4,49.4,0,0,1-34.3-13.45Q27.22,115.49,27.21,94.15A46.19,46.19,0,0,1,40.66,60.7a49.34,49.34,0,0,1,16-10.84,47.29,47.29,0,0,1,18.79-3.94A56.67,56.67,0,0,1,97.14,50.52Z"/><path id="_Compound_Path_2" data-name="&lt;Compound Path&gt;" class="cls-1" d="M166.58,123.85H133.86l-6.3,15.88H102.35L137.5,48.34h25.94l34.41,91.39H172.52Zm-6.42-18.18-9.69-29.09h-.25l-9.81,29.09Z"/><path id="_Compound_Path_3" data-name="&lt;Compound Path&gt;" class="cls-1" d="M227.79,48.34v71.27h28.48v20.12H204V48.34Z"/><path id="_Compound_Path_4" data-name="&lt;Compound Path&gt;" class="cls-1" d="M354.08,53.43l-9.45,18.43a24.1,24.1,0,0,0-15.76-6.07,12.68,12.68,0,0,0-7,2.06,6.35,6.35,0,0,0-3.21,5.58,5.94,5.94,0,0,0,2,4.36,12.47,12.47,0,0,0,3.76,2.67c1.17.49,2.76,1.05,4.78,1.7L335.3,84q10.65,3.15,16.6,8.9t5.94,16.06q0,16.61-9.46,24.61-10.17,8.59-25.93,8.6a55,55,0,0,1-32.12-10.42l10.18-19.15Q311.29,122,321.6,122a14,14,0,0,0,8.06-2.36,7.79,7.79,0,0,0,3.45-6.85q0-6.18-11.51-9.58-.36-.12-2.91-.84a91.63,91.63,0,0,1-10.3-3.4,34.3,34.3,0,0,1-7.52-4.42,15.5,15.5,0,0,1-5.33-7.21A32,32,0,0,1,294,76.58q0-13.81,8.84-22.24t22.67-8.42A58,58,0,0,1,340.2,48,59.16,59.16,0,0,1,354.08,53.43Z"/><path id="_Compound_Path_5" data-name="&lt;Compound Path&gt;" class="cls-1" d="M404.26,68.46v71.27H380.5V68.46H360.87V48.34h63V68.46Z"/><path id="_Compound_Path_6" data-name="&lt;Compound Path&gt;" class="cls-1" d="M480,123.85H447.28L441,139.73H415.77l35.15-91.39h25.93l34.42,91.39H485.94Zm-6.42-18.18-9.7-29.09h-.24l-9.82,29.09Z"/><path id="_Compound_Path_7" data-name="&lt;Compound Path&gt;" class="cls-1" d="M546.54,68.46v71.27H522.79V68.46H503.15V48.34h63V68.46Z"/><path id="_Compound_Path_8" data-name="&lt;Compound Path&gt;" class="cls-1" d="M625.56,68.46H597.32V83.73h17.8v20.12h-17.8v15.76h28.24v20.12h-52V48.34h52Z"/><path class="cls-1" d="M849.15,136.5c-8,0-11.11-5.14-17.33-22.58L809.37,50.61c-.72-1.91-1.32-2.27-3.47-2.27H786.31a1.53,1.53,0,0,0-1.67,1.56,1.59,1.59,0,0,0,1.55,1.66c4.18,0,7.77.25,9.32,3.83l2.63,6.21-25.09,60.57c-4.3,10.27-7,14.33-14.09,14.33-1.32,0-2.15.84-2.15,1.55s.83,1.68,2.62,1.68h28.79c1.67,0,2.39-.72,2.39-1.56a1.86,1.86,0,0,0-1.91-1.67c-9.32,0-12.07-2.51-12.07-5.73a8.17,8.17,0,0,1,.61-2.87L800.4,66.85,812,99.47H793.94l-1.77,4.66h21.5l5.61,15.53c1.79,5.14,2.87,8.72,2.87,11.34,0,4.43-3.11,5.5-10.88,5.5a1.93,1.93,0,0,0-2.14,1.79c0,.72.59,1.44,1.79,1.44h38.7c1.2,0,1.79-.72,1.79-1.44S850.7,136.5,849.15,136.5Z"/><path class="cls-1" d="M690.18,90.39c0-16.36-.48-26-.72-29.38-.6-6.93-3.41-9.44-9.66-9.44-1.43,0-1.86-.69-1.86-1.53s.31-1.7,1.5-1.7h35.22c1.2,0,1.42.72,1.42,1.56s-.34,1.67-1.89,1.67c-6.57,0-8.25,2.39-9.2,9.44-.48,3.34-.72,13-.72,29.14v16.37c0,8.48-.06,13.62.31,17,.72,6.69,5.89,12.64,17.44,12.64h7.92c11.74-.2,19.34-8.52,23.11-21.26a2.08,2.08,0,0,1,2.51-1.63c.81.24,1.25.48,1.25,1.43,0,2.16-7.37,20.63-8.09,22.9a2.94,2.94,0,0,1-2.86,2.15H679.51a1.37,1.37,0,0,1-1.57-1.44c0-.83.33-1.79,1.51-1.79,5.16,0,9.41-2.87,10-9.91.24-3.35.72-11.83.72-28.31Z"/></svg>