<svg id="Layer_1" data-name="Layer 1" xmlns="http://www.w3.org/2000/svg" viewBox="0 0 883.92 300"><defs><style>.cls-1{fill:#fff;}.cls-2{fill:#ffcd00;}</style></defs><title>WeAreLA Logo-whiteNo1</title><path class="cls-1" d="M848.17,207.66c-11.08,0-15.39-7.11-24-31.27L793.07,88.68c-1-2.65-1.82-3.14-4.8-3.14H763.08a2.13,2.13,0,0,0-2.32,2.15A2.22,2.22,0,0,0,762.91,90c3.88,0,8.81.34,11,5.3l3.64,8.61-10.29,24.85a1.43,1.43,0,0,0-.14.34h0C759.86,146.53,749.72,158,730.59,158H719.42c-11.71,0-17.76-7.27-18.75-14.55-.67-4.63-.66-14.74-.66-26.49V94.25c0-22.34.33-35.74,1-40.38,1.33-9.76,6-13.07,12.86-13.07,2.16,0,2.87-.93,2.87-2.09a2.12,2.12,0,0,0-2.2-2.38H666.35c-1.65,0-2.71,1-2.71,2.15s1,2.32,3,2.32c7.09,0,12,3.48,12.87,13.07.33,4.64,1,18,1,40.71v10.93c0,22.83-.66,34.58-1,39.21-.83,9.77-2.91,13.74-12.86,13.74-2.15,0-2.9,1.32-2.9,2.48,0,1,.58,2,2.24,2h91l-5.36,3.55-8.83,21.33c-6,14.23-9.76,19.85-19.53,19.85a2.18,2.18,0,0,0-2.48,2.16c0,1.15.66,2.31,3.15,2.31h34.22c2.32,0,2.83-1,2.83-2.15a2.14,2.14,0,0,0-2.17-2.32c-6.62,0-11-3.47-11-7.94a11.5,11.5,0,0,1,.82-4l32.11-84.56,16.05,45.17h-25l-2.42,6.46h34.19l-3.28,3.23,6.61,18.28c2.48,7.12,4,12.08,4,15.72,0,6.13-4.77,7.61-11.73,7.61a2.39,2.39,0,0,0-2.66,2.49,1.88,1.88,0,0,0,2.16,2h50.29a1.74,1.74,0,0,0,2-2C850.82,209,850.33,207.66,848.17,207.66Z"/><path class="cls-1" d="M104.88,252.71v17.18H99.15V252.71H94.42v-4.84h15.19v4.84Z"/><path class="cls-1" d="M116.68,256.36h8.26v-8.49h5.72v22h-5.72v-9h-8.26v9H111v-22h5.73Z"/><path class="cls-1" d="M146.2,252.71h-6.8v3.68h6.45v4.85H139.4V265h6.8v4.85H133.67v-22H146.2Z"/><path class="cls-1" d="M174,248.39v6.86a5.9,5.9,0,0,0-2.2-1.79,6.53,6.53,0,0,0-2.82-.63,5.52,5.52,0,0,0-4.24,1.75,6.13,6.13,0,0,0-1.63,4.35,5.88,5.88,0,0,0,1.65,4.31,5.75,5.75,0,0,0,4.3,1.68,6.23,6.23,0,0,0,2.72-.63,6.48,6.48,0,0,0,2.22-1.71v6.87a19,19,0,0,1-5.05,1,11.92,11.92,0,0,1-8.27-3.24,10.69,10.69,0,0,1-3.53-8.32,11.15,11.15,0,0,1,3.24-8.07,12,12,0,0,1,3.86-2.61,11.42,11.42,0,0,1,4.52-.95A13.63,13.63,0,0,1,174,248.39Z"/><path class="cls-1" d="M190.33,266.06h-7.89l-1.52,3.83h-6.07l8.47-22h6.25l8.29,22h-6.1Zm-1.55-4.38-2.34-7h-.06l-2.36,7Z"/><path class="cls-1" d="M197.6,269.89l3.74-22H207l4.47,11.76,4.73-11.76h5.7l3.33,22h-5.73l-1.61-12.68h-.05l-5.29,12.68h-2.28l-5.05-12.68h-.06l-1.84,12.68Z"/><path class="cls-1" d="M226.89,269.89v-22h8.76a8.86,8.86,0,0,1,5.86,1.79,6.7,6.7,0,0,1,2.14,5.45q0,7.47-7.8,7.47h-3.24v7.31Zm5.72-17.41V258h2.21a7,7,0,0,0,1.08-.16,2.51,2.51,0,0,0,1-.41,2.4,2.4,0,0,0,.57-.79,3.18,3.18,0,0,0,.24-1.32,3.34,3.34,0,0,0-.23-1.35,2.6,2.6,0,0,0-.55-.84,2.1,2.1,0,0,0-.95-.42,7.64,7.64,0,0,0-1.08-.16c-.31,0-.74,0-1.3,0Z"/><path class="cls-1" d="M256.79,266.06h-7.88l-1.52,3.83h-6.08l8.47-22H256l8.3,22h-6.11Zm-1.55-4.38-2.33-7h-.06l-2.37,7Z"/><path class="cls-1" d="M271.1,247.87v22h-5.72v-22Z"/><path class="cls-1" d="M284.71,257.59h11.36a26.52,26.52,0,0,1-.48,4.85,10.13,10.13,0,0,1-1.77,3.85q-3.09,4.33-9.08,4.33a11.55,11.55,0,0,1-8.47-3.23A11.28,11.28,0,0,1,273,259a11.54,11.54,0,0,1,3.3-8.6,11.77,11.77,0,0,1,8.64-3.25,11.29,11.29,0,0,1,6,1.54,10.18,10.18,0,0,1,3.94,4.62l-5.43,2.28A5.59,5.59,0,0,0,287.6,253a4.64,4.64,0,0,0-2.92-.94,4.91,4.91,0,0,0-4.19,2.1A8,8,0,0,0,279,259a7.79,7.79,0,0,0,1.56,4.82,5,5,0,0,0,4.25,2.07,5,5,0,0,0,3.18-1,3.87,3.87,0,0,0,1.43-2.83h-4.67Z"/><path class="cls-1" d="M298,269.89v-22h5.72l10.49,13.46h.06V247.87H320v22h-5.72l-10.49-13.5h-.06v13.5Z"/><path class="cls-1" d="M344.9,252.71H338v3.68h6.28v4.85H338v8.65h-5.73v-22H344.9Z"/><path class="cls-1" d="M352.46,248.55a13.3,13.3,0,0,1,11.92,0,11.52,11.52,0,0,1,4.49,4,10.47,10.47,0,0,1,1.73,5.87,11.79,11.79,0,0,1-3.43,8.74,12.93,12.93,0,0,1-17.5,0,11.75,11.75,0,0,1-3.43-8.74A10.46,10.46,0,0,1,348,252.6,11.62,11.62,0,0,1,352.46,248.55Zm10.34,5.89a6.36,6.36,0,0,0-8.76,0,5.44,5.44,0,0,0-1.84,4.06,6.46,6.46,0,0,0,1.81,4.68,6.09,6.09,0,0,0,8.82,0,6.46,6.46,0,0,0,1.81-4.68A5.44,5.44,0,0,0,362.8,254.44Z"/><path class="cls-1" d="M383.91,260.86l6.92,9h-7.12l-5.4-8.47h-.06v8.47h-5.73v-22h8.56a8.57,8.57,0,0,1,5.55,1.69,6.14,6.14,0,0,1,2.1,5.08,6.68,6.68,0,0,1-1.27,4.09A5.4,5.4,0,0,1,383.91,260.86Zm-5.66-8.61v5.49h.55q4,0,4-2.75t-4-2.74Z"/><path class="cls-2" d="M482.27,97.75q-4.14-3.21-11.89-3.21h-4.94V119.4h4.94q7.75,0,11.89-3.21t4.15-9.22Q486.42,101,482.27,97.75Z"/><path class="cls-2" d="M634,178.51V36.33H52.51a9,9,0,0,0-9,9V203.09a9,9,0,0,0,9,9H697.9Zm-424.05-3.38H183.19l-19.78-58.41-19.78,58.41H116.9L86.83,74.36h27.4l17.37,65.08L153,74.36h20.85l21.39,65.08,17.37-65.08H240Zm87.93-78.59H266.71v16.84h21.61v22.19H266.71v17.37h31.14v22.19H240.52V74.36h57.33Zm112,78.59-6-17.51H379.71V137.71h17.17l-11.76-33.55-24.73,71H332.46L370.82,74.36h28.6l38.35,100.77Zm80.59,0-25-38.76v38.76h-26.2V74.36H480a40,40,0,0,1,14.7,2.47,27.69,27.69,0,0,1,16.51,16.64,34.48,34.48,0,0,1,2.07,12q0,11.49-5.55,18.64t-16.37,9.69L523,175.13Zm90.88-78.59H550.17v16.84h23.19v22.19H550.17v17.37h31.14v22.19H524V74.36h57.34Z"/><path id="_Compound_Path_" data-name="&lt;Compound Path&gt;" class="cls-1" d="M417,249v6.53a5.52,5.52,0,0,0-2.09-1.71,6.22,6.22,0,0,0-2.69-.6,5.29,5.29,0,0,0-4,1.67,5.86,5.86,0,0,0-1.55,4.14,5.58,5.58,0,0,0,1.57,4.1,5.48,5.48,0,0,0,4.1,1.6,5.88,5.88,0,0,0,2.58-.6A6.17,6.17,0,0,0,417,262.5V269a17.91,17.91,0,0,1-4.8,1,11.35,11.35,0,0,1-7.87-3.08A10.17,10.17,0,0,1,401,259a10.63,10.63,0,0,1,3.08-7.67,11.38,11.38,0,0,1,3.67-2.48,10.76,10.76,0,0,1,4.31-.91A13,13,0,0,1,417,249Z"/><path id="_Compound_Path_2" data-name="&lt;Compound Path&gt;" class="cls-1" d="M433,265.8h-7.5L424,269.44h-5.78l8.06-20.95h5.95l7.89,20.95h-5.81Zm-1.47-4.17L429.26,255h-.05L427,261.63Z"/><path id="_Compound_Path_3" data-name="&lt;Compound Path&gt;" class="cls-1" d="M447,248.49v16.34h6.54v4.61h-12V248.49Z"/><path id="_Compound_Path_4" data-name="&lt;Compound Path&gt;" class="cls-1" d="M476,249.66l-2.16,4.22a5.54,5.54,0,0,0-3.62-1.39,2.92,2.92,0,0,0-1.59.47,1.45,1.45,0,0,0-.74,1.28,1.34,1.34,0,0,0,.46,1,2.69,2.69,0,0,0,.86.61,9.32,9.32,0,0,0,1.1.39l1.39.42a9,9,0,0,1,3.8,2,4.9,4.9,0,0,1,1.37,3.69c0,2.53-.73,4.41-2.17,5.64a8.93,8.93,0,0,1-5.95,2,12.6,12.6,0,0,1-7.36-2.39l2.33-4.39a7.48,7.48,0,0,0,4.84,2.17,3.1,3.1,0,0,0,1.84-.55,1.78,1.78,0,0,0,.8-1.57q0-1.41-2.64-2.19l-.67-.2a19.3,19.3,0,0,1-2.36-.77,7.82,7.82,0,0,1-1.73-1,3.52,3.52,0,0,1-1.22-1.65,7.39,7.39,0,0,1-.36-2.48,6.73,6.73,0,0,1,2-5.1,7.24,7.24,0,0,1,5.19-1.93,14.66,14.66,0,0,1,6.56,1.73Z"/><path id="_Compound_Path_5" data-name="&lt;Compound Path&gt;" class="cls-1" d="M487.46,253.1v16.34H482V253.1h-4.5v-4.61H492v4.61Z"/><path id="_Compound_Path_6" data-name="&lt;Compound Path&gt;" class="cls-1" d="M504.83,265.8h-7.5l-1.45,3.64H490.1l8.06-20.95h5.95L512,269.44h-5.81Zm-1.47-4.17L501.13,255h-.05l-2.25,6.67Z"/><path id="_Compound_Path_7" data-name="&lt;Compound Path&gt;" class="cls-1" d="M520.09,253.1v16.34h-5.45V253.1h-4.5v-4.61h14.45v4.61Z"/><path id="_Compound_Path_8" data-name="&lt;Compound Path&gt;" class="cls-1" d="M538.21,253.1h-6.48v3.5h4.08v4.62h-4.08v3.61h6.48v4.61H526.28V248.49h11.93Z"/><path class="cls-1" d="M585.78,268.7c-1.83,0-2.54-1.17-4-5.17L576.66,249c-.16-.44-.3-.52-.79-.52h-4.49a.35.35,0,0,0-.39.36.37.37,0,0,0,.36.38c1,0,1.78.05,2.13.87l.61,1.43-5.76,13.89c-1,2.35-1.61,3.28-3.23,3.28a.45.45,0,0,0-.49.36c0,.19.19.38.6.38h6.6c.39,0,.55-.16.55-.35a.43.43,0,0,0-.44-.39c-2.13,0-2.76-.57-2.76-1.31a1.94,1.94,0,0,1,.13-.66l5.32-14,2.65,7.48h-4.14l-.4,1.07h4.93l1.29,3.56a9,9,0,0,1,.65,2.6c0,1-.71,1.26-2.49,1.26a.44.44,0,0,0-.49.42c0,.16.13.32.41.32h8.87c.28,0,.41-.16.41-.32S586.14,268.7,585.78,268.7Z"/><path class="cls-1" d="M549.33,258.13c0-3.75-.11-6-.16-6.74-.14-1.59-.79-2.16-2.22-2.16-.33,0-.43-.16-.43-.35s.08-.39.35-.39H555c.27,0,.32.16.32.36s-.08.38-.43.38c-1.51,0-1.89.55-2.11,2.16-.11.77-.17,3-.17,6.69v3.75c0,1.94,0,3.12.07,3.89.17,1.54,1.35,2.9,4,2.9h1.82c2.69,0,4.43-1.95,5.3-4.87a.48.48,0,0,1,.57-.38c.19.06.29.11.29.33,0,.5-1.69,4.73-1.85,5.25a.68.68,0,0,1-.66.49H546.89c-.28,0-.37-.16-.37-.32s.08-.42.35-.42a2.19,2.19,0,0,0,2.3-2.27c.05-.77.16-2.71.16-6.49Z"/></svg>